<svg width="1000" height="1000" xmlns="http://www.w3.org/2000/svg"><path fill="#90827c" d="M0 0h1000v1000H0z"/><g fill-opacity=".502"><path d="M268.412 823.234L2.95 832.504-26.225-2.923l265.463-9.27z" fill="#fff"/><path d="M544.457 678.723l514.137 321.066-1083.868 15.773-37.226-94.648zM207.031 214.844l570.313 23.437L500 15.625z"/><path d="M1171.781 735.89l-324.773 69.036-206.29-970.506 324.774-69.033z" fill="#d6e4e3"/><path d="M761.719 222.656L246.094 386.72l402.344 644.531z" fill="#6c290d"/><path d="M250-62.5L808.594 3.906 226.562 89.844z" fill="#faffff"/><path d="M245.864 519.762c73.223 73.222 73.223 191.941 0 265.164-73.223 73.222-191.942 73.222-265.165 0-73.224-73.223-73.224-191.942 0-265.164 73.223-73.223 191.942-73.223 265.165 0" fill="#fff"/><path d="M554.45 958.348l45.222-157.707 431.816 123.824-45.222 157.707z"/><path d="M210.938 121.094l394.53 777.343-273.437 19.532z" fill="#b06f4f"/><path d="M355.469 62.5l-125 246.094L671.875 113.28z" fill="#080000"/><path d="M730.469 515.625l3.906-320.313L566.406 58.595z" fill="#010000"/><path d="M85.938 785.156L300.78 54.688-62.5 269.53z" fill="#e3ecf0"/><path d="M339.033 397.82c-88.156-23.546-96.954-81.933-19.652-130.411 77.303-48.479 211.431-68.69 299.588-45.145 88.156 23.546 96.953 81.932 19.652 130.411-77.3 48.477-211.433 68.692-299.588 45.145" fill="#b57953"/><path d="M285.156 773.438l3.906 285.156L-62.5 984.375z" fill="#000007"/><path d="M910.156-62.5l-27.343 347.656L542.968 31.25z" fill="#cdcfcc"/><path d="M664.063 796.875l281.25-601.563-66.407 687.5z" fill="#b0b3b1"/><path d="M464.844 394.531L250 277.344l-19.531 199.219z" fill="#473226"/><path d="M285.156 765.625l210.938-542.969v730.469z" fill="#b7785a"/><path d="M134.777 437.297L-31.068 900.359l254.496-99.34 117.896-67.925z" fill="#e8ecf4"/><path d="M508.008 400.484l210.594 123.453 23.675-167.739-185.793 18.597z" fill="#27160f"/><path d="M1359.004 996.922L1329.19 1150.3l-797.57-155.035 29.813-153.38z" fill="#000710"/><path d="M-62.5 380.789L416.48 47.83l505.438 53.197L64.446-62.5z" fill="#ccd0cd"/><path d="M351.563 101.563L750 261.719 460.937 39.063z" fill="#0a0200"/><path d="M401.242 357.77c-47.136-22.188-46.113-55.807 2.285-75.09 48.399-19.285 125.848-16.93 172.985 5.258 47.136 22.189 46.113 55.808-2.285 75.092-48.399 19.284-125.844 16.929-172.985-5.26" fill="#c89a81"/><path d="M408.86 797.441c-90.266-.64-126.788-64.496-81.574-142.625 45.215-78.129 155.042-140.945 245.312-140.3 90.265.64 126.785 64.496 81.574 142.625-45.215 78.129-155.043 140.945-245.313 140.3" fill="#96583e"/><path d="M250 394.531l7.813-214.844 93.75-89.843z" fill="#100a06"/><path d="M332.031 761.719l121.094-308.594-226.563-7.813z" fill="#b47959"/><path d="M644.531 23.438l207.032 519.53L1042.968-62.5z" fill="#bdbeb9"/><path d="M1170.656 726.281c-78.922 78.832-233.199 137.992-344.593 132.14-111.395-5.85-137.72-74.503-58.801-153.335 78.922-78.832 233.199-137.992 344.593-132.14 111.395 5.855 137.72 74.503 58.801 153.335" fill="#9b9c9c"/><path d="M281.7 1058.594l164.585-128.977-90.846-84.152-66.151-81.262z" fill="#2b375f"/><path d="M511.719 847.656L742.188 406.25 707.03 761.719z" fill="#564333"/><path d="M296.208 217.893l354.194-2.671-334.265 150.407-60.407 158.328z" fill="#ab7553"/><path d="M312.5 785.156l-375 121.094 109.375 50.781z" fill="#0e1116"/><path d="M578.125 1054.688l-58.594-85.938-156.25 23.438z" fill="#cc0007"/><path d="M242.188 132.813l-3.907 546.875L-39.063 906.25z" fill="#e6e7eb"/><path d="M402.434 143.49c-52.18-29.331-47.774-66.27 9.843-82.502 57.618-16.233 146.63-5.614 198.813 23.718 52.18 29.332 47.773 66.27-9.844 82.503-57.617 16.233-146.629 5.614-198.812-23.718" fill="#1c1511"/><path d="M700.61 366.843c-15.68-39.041-23.485-104.443-17.43-146.077 6.054-41.635 23.672-43.737 39.351-4.695 15.676 39.042 23.48 104.443 17.426 146.078-6.055 41.636-23.672 43.738-39.348 4.694" fill="#020506"/><path d="M676.422 778.121L610.496 950.2l-232.98 50.16 83.129-52.144z" fill="#262237"/><path d="M605.469 808.594l-214.844 42.968 82.031 89.844z" fill="#b78968"/><path d="M337.512 355.307c29.2.36 75.36 8.046 103.101 17.168 27.742 9.122 26.559 16.225-2.64 15.866-29.2-.359-75.362-8.045-103.103-17.167-27.741-9.122-26.559-16.226 2.642-15.867" fill="#111016"/><path d="M620.227 492.105c16.78 25.934 16.78 67.98 0 93.915-16.782 25.933-43.985 25.933-60.766 0-16.781-25.934-16.781-67.98 0-93.915 16.781-25.933 43.984-25.933 60.766 0" fill="#bd795b"/><path d="M445.313-7.813L7.813 406.25l-46.876-246.094z" fill="#cfcecc"/><path d="M555.926 830.496c-35.051 8.848-91.485 7.445-126.051-3.125-34.566-10.574-34.176-26.316.875-35.16 35.047-8.844 91.48-7.445 126.047 3.125 34.566 10.574 34.176 26.316-.871 35.16" fill="#643a27"/><path d="M523.438 371.094l-62.5 339.844L562.5 695.313z" fill="#75382a"/><path d="M779.96 305.434l20.9 198.238-91.45 307.66-54.305-11.34z" fill="#89837c"/><path d="M298.5 751.148c-11.162 27.18-43.467 54.364-72.154 60.723-28.686 6.356-42.892-10.523-31.73-37.703 11.163-27.18 43.467-54.367 72.154-60.723 28.686-6.36 42.892 10.524 31.73 37.703" fill="#dadee0"/><path d="M246.094 230.469h23.437v152.344h-23.437z" fill="#101315"/><path d="M605.469 890.625l375 167.969 39.062-156.25z" fill="#0c0b08"/><path d="M601.563 742.188l281.25 234.375-152.344 82.03z" fill="#0c0d0d"/><path d="M285.156 621.094h269.531l-332.03-191.407z" fill="#af795f"/><path d="M657.547 128.317l-365.204 12.411 241.731 55.533 202.094 15.21z" fill="#140b08"/><path d="M74.219 578.125h199.219v101.563H74.218z" fill="#f1f1f7"/><path d="M539.254-62.5L-62.5 241.247 189.902 420.57l93.455-285.92z" fill="#cecfcc"/><path d="M1058.594 496.094L769.53 468.75l-23.437 359.375z" fill="#aeacaa"/><path d="M693.531 435.617l-33.918-59.188-89.797-47.436 124.86-68.863z" fill="#835539"/><path d="M871.094 339.844L750-11.72 507.812-46.875z" fill="#c4c4c2"/><path d="M496.176 721.234c25.933 13.73 25.933 35.989 0 49.72-25.934 13.73-67.98 13.73-93.914 0-25.933-13.731-25.933-35.99 0-49.72 25.933-13.73 67.98-13.73 93.914 0" fill="#b78464"/><path d="M785.156 847.656l273.438-269.531L957.03 902.344z" fill="#929391"/><path d="M310.94 765.488c-2.408 22.742-14.458 56.727-26.915 75.903-12.458 19.18-20.606 16.289-18.2-6.45 2.408-22.742 14.458-56.726 26.915-75.906 12.458-19.176 20.606-16.289 18.2 6.453" fill="#1e1f24"/><path d="M635.184 374.526c22.879 4.577 22.879 11.996 0 16.572-22.883 4.578-59.985 4.578-82.868 0-22.879-4.576-22.879-11.995 0-16.572 22.883-4.576 59.985-4.576 82.868 0"/><path d="M437.5 402.344h179.688v23.437H437.5z" fill="#9f6b51"/><path d="M308.568 576.941l19.585-183.027-92.848 48.695 19.513 132.121z" fill="#a47355"/><path d="M403.176 420.676l-6.613 26.531-34.114-8.508 6.615-26.531z" fill="#00000a"/><path d="M463.5 926.918l28.55 3.477-189.687-200.383 25.247 96.144z" fill="#b38c6b"/><path d="M621.66 807.863L743.883 527.72l-8.856-81.504-144.601 311.773z" fill="#57392a"/><path d="M644.668 950.508l-353.393-35.309 240.557 46.922 117.223 96.473z" fill="#37364a"/><path d="M532.848 342.46c-1.387 27.58-17.29 66.75-35.516 87.497-18.23 20.742-31.883 15.2-30.496-12.383 1.383-27.578 17.285-66.751 35.516-87.494 18.23-20.742 31.882-15.2 30.496 12.38" fill="#bc907a"/><path d="M311.628 164.81l263.274 45.398-137.855 21.805-98.242 24.295z" fill="#563123"/><path d="M542.316-45.002c85.57.905 91.575 29.878 13.41 64.715-78.16 34.836-210.892 62.344-296.462 61.44-85.57-.905-91.574-29.878-13.411-64.715 78.163-34.836 210.893-62.344 296.463-61.44" fill="#cacac8"/><path d="M550.492 366.476L373.64 348.81l-93.128 20.035L452.38 223.187z" fill="#bb8f75"/><path d="M728.742 240.716c-17.941-15.151-13.613-24.941 9.668-21.867 23.281 3.074 56.695 17.85 74.637 33 17.941 15.151 13.613 24.942-9.668 21.867-23.281-3.074-56.695-17.849-74.637-33" fill="#bfc1be"/><path d="M429.688 941.406l-113.282 93.75-7.812-246.093z" fill="#41445a"/><path d="M1004.379 213.293c4.578 128.141 4.578 335.898 0 464.039-4.574 128.14-11.996 128.14-16.57 0-4.579-128.14-4.579-335.898 0-464.039 4.574-128.14 11.996-128.14 16.57 0" fill="#8d8d8a"/><path d="M263.115 792.809l47.579-80.278-114.91-301-50.235 180.043z" fill="#ebecf0"/><path d="M583.469 440.395l34.976-15.067 35.825 29.969-77.145-2.895z" fill="#120a0b"/><path d="M460.273 583.059l98.461-28.59-139.93-9.668-5.491 1.875z" fill="#663121"/><path d="M311.214 390.468l-7.093-13.922 48.727-24.827 7.093 13.922z" fill="#010309"/><path d="M365.253 644.988l-9.08 3.512 185.753 21.047 29.87-31.121z" fill="#6a2a2a"/><path d="M699.508 417.176l-7.727 115.136-177.89 316.961 138.421-390.12z" fill="#865137"/><path d="M186.045 782.59c48.815 12.203 48.815 31.992 0 44.195-48.816 12.203-127.961 12.203-176.777 0-48.816-12.203-48.816-31.992 0-44.195s127.96-12.203 176.777 0" fill="#d2d4d5"/><path d="M648.438 222.656l27.343 125-160.156-152.344z" fill="#936145"/><path d="M789.012 362.555l37.078 116.86-75.465-183.393-23.465 191.826z" fill="#908c84"/><path d="M964.844 917.969l-300.782 140.625-50.78-273.438z" fill="#101011"/><path d="M411.383 104.243c24.406 24.408 24.406 63.98 0 88.389-24.41 24.407-63.982 24.407-88.39 0-24.407-24.408-24.407-63.98 0-88.389 24.408-24.407 63.98-24.407 88.39 0" fill="#251e1a"/><path d="M437.5 855.469h132.813L625 785.156z" fill="#915f41"/><path d="M265.111 543.191l27.453-261.024 12.72-60.948 46.492-40.027z" fill="#976c4f"/><path d="M279.464 287.2c15.159-1.477 22.616 8.688 16.656 22.705-5.96 14.016-23.08 26.575-38.239 28.053-15.159 1.477-22.616-8.688-16.656-22.704 5.96-14.017 23.08-26.576 38.24-28.053" fill="#3e322c"/><path d="M210.03 491.508l-269.82 72.414 202.86-223.72 111.792 51.732z" fill="#dcdde0"/><path d="M282.011 629.54l44.581-14.49 39.834 122.598-44.58 14.489z" fill="#8f6749"/><path d="M414.063 960.938h101.562v11.718H414.062z" fill="#0c0007"/><path d="M1058.594 41.19L479.133 37.87 456.352 19.91l176.246 78.84z" fill="#b3b3b2"/><path d="M273.358 320.736l-11.575 132.307-3.891-.34 11.575-132.308z" fill="#1c1a1a"/><path d="M625 97.656L507.812 58.594l-85.937 152.344z" fill="#150e0c"/><path d="M390.625 972.656h23.438v23.438h-23.438z" fill="#b1091e"/><path d="M745.063 364.433l-68.524-92.166-55.86-150.887L739.442 266z" fill="#110c0a"/><path d="M257.813 828.125h19.53v167.969h-19.53z" fill="#000208"/><path d="M257.813 179.688h39.062v66.406h-39.063z" fill="#180e0b"/><path d="M301.666 486.543l137.389-23.32-77.753 216.07 3.724-69.75z" fill="#b77f66"/><path d="M331.986 386.576c19.616-3.423 50.768-.905 69.58 5.623 18.813 6.531 18.16 14.598-1.457 18.02-19.616 3.426-50.768.906-69.58-5.621-18.812-6.532-18.16-14.6 1.457-18.022" fill="#9d6651"/><path d="M91.38 964.898c-24.844 14.778-50.127 3.895-56.472-24.304-6.346-28.2 8.649-63.04 33.492-77.813 24.843-14.777 50.126-3.894 56.471 24.305 6.346 28.2-8.649 63.039-33.492 77.812" fill="#1d1e21"/></g></svg>