<svg version="1.1" width="2604" height="2604" xmlns="http://www.w3.org/2000/svg">
<rect x="0" y="0" width="2604" height="2604" fill="#90827c" />
<g transform="scale(10.1719, 10.1719)">
<path d="M 72.4014 206.448 L -7.40374 212.028 L -22.4014 -2.44788 L 57.4037 -8.02839 Z" fill="#ffffff" fill-opacity="0.501961" />
<path d="M 36.6853 276.69 C -20.1196 254.92, -18.0509 226.47, 41.3058 213.146 C 100.662 199.822, 194.83 206.669, 251.635 228.44 C 308.44 250.21, 306.371 278.66, 247.014 291.984 C 187.658 305.308, 93.4901 298.461, 36.6853 276.69" fill="#000000" fill-opacity="0.501961" />
<path d="M 170.669 34.331 C 196.444 60.1056, 196.444 101.894, 170.669 127.669 C 144.894 153.444, 103.106 153.444, 77.331 127.669 C 51.5563 101.894, 51.5563 60.1056, 77.331 34.331 C 103.106 8.55635, 144.894 8.55635, 170.669 34.331" fill="#451200" fill-opacity="0.501961" />
<path d="M 174.747 -36.584 L 249.017 -47.022 L 283.253 196.584 L 208.983 207.022 Z" fill="#d5e2e1" fill-opacity="0.501961" />
<path d="M 190 93 L 37 225 L 179 216 Z" fill="#6d2f13" fill-opacity="0.501961" />
<path d="M 84 195 L 22 20 L -16 232 Z" fill="#f8ffff" fill-opacity="0.501961" />
<path d="M 78.4897 57.7075 L 169.576 57.6529 L 121.581 271 L 59.3222 126.856 Z" fill="#b97655" fill-opacity="0.501961" />
<path d="M 153.113 20.1508 C 170.296 28.3518, 170.296 41.6482, 153.113 49.8492 C 135.93 58.0503, 108.07 58.0503, 90.8873 49.8492 C 73.7042 41.6482, 73.7042 28.3518, 90.8873 20.1508 C 108.07 11.9497, 135.93 11.9497, 153.113 20.1508" fill="#000000" fill-opacity="0.501961" />
<path d="M 153 198 L 271 248 L 143 271 Z" fill="#000000" fill-opacity="0.501961" />
<path d="M 213.023 -21.3802 C 259.313 -22.3502, 260.545 -13.5642, 215.776 -1.7562 C 171.007 10.0518, 97.189 20.4103, 50.8989 21.3802 C 4.60889 22.3502, 3.37599 13.5642, 48.1452 1.7562 C 92.9144 -10.0518, 166.732 -20.4103, 213.023 -21.3802" fill="#eaf5f4" fill-opacity="0.501961" />
<path d="M 208.375 39.6446 C 223.308 61.3842, 217.386 67.5122, 195.148 53.3319 C 172.91 39.1515, 142.777 10.0326, 127.843 -11.707 C 112.91 -33.4466, 118.832 -39.5746, 141.07 -25.3943 C 163.308 -11.2139, 193.441 17.905, 208.375 39.6446" fill="#d9dfdd" fill-opacity="0.501961" />
<path d="M 190 112 L 134 12 L 185 47 Z" fill="#000000" fill-opacity="0.501961" />
<path d="M 68 271 L -16 247 L 80 195 Z" fill="#00000c" fill-opacity="0.501961" />
<path d="M 109.019 -46.0995 L 132.423 -24.2755 L 8.98081 108.099 L -14.4225 86.2755 Z" fill="#d6dbd9" fill-opacity="0.501961" />
<path d="M 95.3873 89.5963 C 81.9259 82.3595, 82.4247 71.6677, 96.5015 65.7155 C 110.578 59.7634, 132.902 60.8049, 146.364 68.0418 C 159.825 75.2787, 159.326 85.9705, 145.25 91.9226 C 131.173 97.8747, 108.849 96.8332, 95.3873 89.5963" fill="#d2a789" fill-opacity="0.501961" />
<path d="M 141.879 96.3229 C 152.866 92.7125, 169.973 94.3333, 180.087 99.9433 C 190.201 105.553, 189.493 113.028, 178.505 116.638 C 167.517 120.249, 150.411 118.628, 140.297 113.018 C 130.183 107.408, 130.891 99.9334, 141.879 96.3229" fill="#1c120f" fill-opacity="0.501961" />
<path d="M 271 237 L 186 212 L 198 81 Z" fill="#a4a6a5" fill-opacity="0.501961" />
<path d="M 127 118 L 132 233 L 176 185 Z" fill="#6f3d28" fill-opacity="0.501961" />
<path d="M 86.7631 215.027 L 118.392 234.849 L 139.734 230.865 L 78.4697 192.394 Z" fill="#ca9a76" fill-opacity="0.501961" />
<path d="M 62 90 L 96 21 L 68 45 Z" fill="#000000" fill-opacity="0.501961" />
<path d="M 87.2392 91.1208 C 93.3944 87.7776, 101.986 89.4567, 106.43 94.8712 C 110.874 100.286, 109.486 107.385, 103.331 110.729 C 97.1761 114.072, 88.584 112.393, 84.1403 106.978 C 79.6966 101.564, 81.084 94.464, 87.2392 91.1208" fill="#2a1f1e" fill-opacity="0.501961" />
<path d="M 61.0757 145.935 L 63.2843 44.4782 L -4.69648 2.96965 L -5.12056 105.745 Z" fill="#d3d6d6" fill-opacity="0.501961" />
<path d="M 106.283 253.203 L 106.814 233.555 L 112.928 235.865 L 135.866 248.662 Z" fill="#03001e" fill-opacity="0.501961" />
<path d="M 168.392 222.96 C 200.25 222.778, 250.625 230.652, 280.908 240.547 C 311.191 250.443, 309.914 258.613, 278.056 258.795 C 246.198 258.978, 195.822 251.104, 165.54 241.208 C 135.257 231.312, 136.534 223.143, 168.392 222.96" fill="#000206" fill-opacity="0.501961" />
<path d="M 168 39 L 117 10 L 84 60 Z" fill="#0d0a09" fill-opacity="0.501961" />
<path d="M 169 207 L 140 205 L 188 107 Z" fill="#402e21" fill-opacity="0.501961" />
<path d="M 170.314 60.565 C 176.562 67.9849, 176.562 80.0151, 170.314 87.435 C 164.065 94.855, 153.935 94.855, 147.686 87.435 C 141.438 80.0151, 141.438 67.9849, 147.686 60.565 C 153.935 53.145, 164.065 53.145, 170.314 60.565" fill="#a5714e" fill-opacity="0.501961" />
<path d="M 140.262 143.538 C 140.665 135.276, 147.097 125.807, 154.628 122.387 C 162.16 118.968, 167.939 122.893, 167.537 131.155 C 167.134 139.417, 160.702 148.886, 153.17 152.306 C 145.639 155.725, 139.86 151.8, 140.262 143.538" fill="#bd7a5d" fill-opacity="0.501961" />
<path d="M 19.5372 176.986 C 16.5084 161.688, 25.8964 144.864, 40.5057 139.408 C 55.1151 133.952, 69.4136 141.93, 72.4423 157.228 C 75.471 172.526, 66.0831 189.35, 51.4738 194.806 C 36.8644 200.262, 22.5659 192.284, 19.5372 176.986" fill="#f4f4fd" fill-opacity="0.501961" />
<path d="M 86 205 L 129 122 L 59 108 Z" fill="#af704f" fill-opacity="0.501961" />
<path d="M 96 10 L 6 -16 L -5 128 Z" fill="#ccccc9" fill-opacity="0.501961" />
<path d="M 167 200 L 239 231 L 271 108 Z" fill="#9e9e9d" fill-opacity="0.501961" />
<path d="M 155.405 208.263 L 131.069 234.941 L 96.2124 222.475 L 153.142 207.268 Z" fill="#b08164" fill-opacity="0.501961" />
<path d="M 173 39 L 181 136 L 192 77 Z" fill="#060606" fill-opacity="0.501961" />
<path d="M 106.059 252.001 L 138.047 247.503 L 136.846 260.731 L 91.3228 256.412 Z" fill="#aa0002" fill-opacity="0.501961" />
<path d="M -22.2709 266.68 L -31.6268 236.078 L 36.2709 215.32 L 45.6268 245.922 Z" fill="#13171a" fill-opacity="0.501961" />
<path d="M 110 242 L 74 195 L 71 271 Z" fill="#37426a" fill-opacity="0.501961" />
<path d="M 64 58 L 69 58 L 69 114 L 64 114 Z" fill="#131717" fill-opacity="0.501961" />
<path d="M 69 201 L 92 189 L 87 177 Z" fill="#725036" fill-opacity="0.501961" />
<path d="M 189 32 L 261 0 L 65 -16 Z" fill="#c5c6c3" fill-opacity="0.501961" />
<path d="M 97.0852 92.8458 C 102.043 93.2365, 109.665 95.362, 114.109 97.5933 C 118.554 99.8245, 118.138 101.317, 113.18 100.926 C 108.222 100.535, 100.6 98.4096, 96.1559 96.1783 C 91.7114 93.9471, 92.1275 92.4551, 97.0852 92.8458" fill="#0b080a" fill-opacity="0.501961" />
<path d="M 137.101 94.7796 L 141.632 48.579 L 96.9659 65.1788 L 122.391 112.927 Z" fill="#b7876e" fill-opacity="0.501961" />
<path d="M 73.7971 9.42336 L 62.3764 69.5695 L 52.3128 213.884 L 6.03893 175.708 Z" fill="#e5e7ec" fill-opacity="0.501961" />
<path d="M 257 22 L 164 16 L 225 106 Z" fill="#c3c5bf" fill-opacity="0.501961" />
<path d="M 168.099 196.232 L 134.052 229.919 L 140.852 271 L 170.394 211.799 Z" fill="#1d1f32" fill-opacity="0.501961" />
<path d="M 187 66 L 136 43 L 167 31 Z" fill="#050201" fill-opacity="0.501961" />
<path d="M 91 165 L 151 193 L 173 146 Z" fill="#8b4938" fill-opacity="0.501961" />
<path d="M 204 126 L 176 188 L 193 78 Z" fill="#827c72" fill-opacity="0.501961" />
<path d="M 271 271 L 167 257 L 161 198 Z" fill="#070a0b" fill-opacity="0.501961" />
<path d="M 81 121 L 107 121 L 107 145 L 81 145 Z" fill="#c1876e" fill-opacity="0.501961" />
<path d="M 130.112 14.3978 C 138.741 17.6294, 139.833 24.8265, 132.552 30.4731 C 125.271 36.1196, 112.373 38.0774, 103.744 34.8458 C 95.115 31.6142, 94.0225 24.417, 101.304 18.7705 C 108.585 13.1239, 121.483 11.1662, 130.112 14.3978" fill="#201a17" fill-opacity="0.501961" />
<path d="M 138 97 L 167 97 L 167 100 L 138 100 Z" fill="#000000" fill-opacity="0.501961" />
<path d="M 74.3137 168.979 C 80.5621 175.618, 80.5621 186.382, 74.3137 193.021 C 68.0653 199.66, 57.9347 199.66, 51.6863 193.021 C 45.4379 186.382, 45.4379 175.618, 51.6863 168.979 C 57.9347 162.34, 68.0653 162.34, 74.3137 168.979" fill="#e9eaed" fill-opacity="0.501961" />
<path d="M 210 73 L 237 165 L 189 205 Z" fill="#b6b5b2" fill-opacity="0.501961" />
<path d="M 257.121 63.7035 C 258.293 101.975, 258.293 164.025, 257.121 202.296 C 255.95 240.568, 254.05 240.568, 252.879 202.296 C 251.707 164.025, 251.707 101.975, 252.879 63.7035 C 254.05 25.4322, 255.95 25.4322, 257.121 63.7035" fill="#888a87" fill-opacity="0.501961" />
<path d="M 128 108 L 139 108 L 139 146 L 128 146 Z" fill="#66301d" fill-opacity="0.501961" />
<path d="M 86.5963 89.8345 L 82.6869 115.006 L 108.149 112.818 L 75.4712 98.2486 Z" fill="#3e2a25" fill-opacity="0.501961" />
<path d="M 78 191 L 68 263 L 50 227 Z" fill="#10171c" fill-opacity="0.501961" />
<path d="M 90.1965 106.696 L 64.8183 112.58 L 88.5803 96.0662 L 119.372 103.287 Z" fill="#98654c" fill-opacity="0.501961" />
<path d="M 103.556 51.2448 C 97.3852 57.6312, 86.234 59.064, 78.6491 54.4451 C 71.0643 49.8261, 69.918 40.9046, 76.0888 34.5182 C 82.2596 28.1318, 93.4107 26.699, 100.996 31.318 C 108.58 35.9369, 109.727 44.8585, 103.556 51.2448" fill="#2b221e" fill-opacity="0.501961" />
<path d="M 162.444 187.77 L 167.281 192.15 L 193.517 99.5454 L 179.759 209.26 Z" fill="#6e685e" fill-opacity="0.501961" />
<path d="M 16 59 L 161 -16 L -10 1 Z" fill="#c9c9c6" fill-opacity="0.501961" />
<path d="M 111.681 140.187 C 117.825 139.134, 127.294 140.6, 132.831 143.461 C 138.369 146.323, 137.878 149.497, 131.734 150.55 C 125.591 151.604, 116.121 150.138, 110.584 147.277 C 105.047 144.415, 105.538 141.241, 111.681 140.187" fill="#6f3324" fill-opacity="0.501961" />
<path d="M -14 225 L -16 69 L 57 207 Z" fill="#e2e3e9" fill-opacity="0.501961" />
<path d="M 160 201 L 92 201 L 127 213 Z" fill="#623b2a" fill-opacity="0.501961" />
<path d="M 178.893 73.4116 L 178.218 113.354 L 168.299 154.752 L 170.139 77.3859 Z" fill="#6e4630" fill-opacity="0.501961" />
<path d="M 129 102 L 164 102 L 164 109 L 129 109 Z" fill="#8d5841" fill-opacity="0.501961" />
<path d="M 58 123 L 63 98 L 70 122 Z" fill="#ad785c" fill-opacity="0.501961" />
<path d="M 78.7382 65.7227 L 77.751 89.9237 L 141.631 95.5096 L 151.515 95.5587 Z" fill="#b78d72" fill-opacity="0.501961" />
<path d="M 86 46 L 84 64 L 149 51 Z" fill="#5b3628" fill-opacity="0.501961" />
<path d="M 81 194 L 141 197 L 72 146 Z" fill="#a77352" fill-opacity="0.501961" />
<path d="M 137.355 171.001 L 147.232 163.815 L 104.049 166.808 L 92.2255 165.669 Z" fill="#5f2122" fill-opacity="0.501961" />
<path d="M 82.1406 93.8927 C 86.3219 92.9828, 93.143 92.7542, 97.3758 93.3823 C 101.609 94.0103, 101.65 95.2571, 97.4691 96.1671 C 93.2878 97.077, 86.4668 97.3055, 82.2339 96.6775 C 78.0011 96.0494, 77.9593 94.8027, 82.1406 93.8927" fill="#000307" fill-opacity="0.501961" />
<path d="M 271 170 L 239 229 L 199 216 Z" fill="#908f8d" fill-opacity="0.501961" />
<path d="M 64 146 L 84 139 L 72 88 Z" fill="#a17759" fill-opacity="0.501961" />
<path d="M 22 122 L 61 122 L 61 181 L 22 181 Z" fill="#eeeef4" fill-opacity="0.501961" />
<path d="M 189.246 84.4336 L 271 14.616 L 184.261 56.2585 L 190.968 74.3371 Z" fill="#b8b8b4" fill-opacity="0.501961" />
<path d="M 106.914 9.80687 L 113.893 13.905 L 184.208 14.5003 L 253.449 -10.0607 Z" fill="#bfbfbc" fill-opacity="0.501961" />
<path d="M 58.0208 82.9792 C 64.6597 89.6181, 64.6597 100.382, 58.0208 107.021 C 51.3819 113.66, 40.6181 113.66, 33.9792 107.021 C 27.3403 100.382, 27.3403 89.6181, 33.9792 82.9792 C 40.6181 76.3403, 51.3819 76.3403, 58.0208 82.9792" fill="#d2d5d4" fill-opacity="0.501961" />
<path d="M 167 28 L 184 56 L 82 31 Z" fill="#120d0c" fill-opacity="0.501961" />
<path d="M 185.657 117.979 C 188.781 124.618, 188.781 135.382, 185.657 142.021 C 182.533 148.66, 177.467 148.66, 174.343 142.021 C 171.219 135.382, 171.219 124.618, 174.343 117.979 C 177.467 111.34, 182.533 111.34, 185.657 117.979" fill="#5c3120" fill-opacity="0.501961" />
<path d="M 66.1924 194.757 C 71.2692 197.101, 71.2692 200.899, 66.1924 203.243 C 61.1156 205.586, 52.8844 205.586, 47.8076 203.243 C 42.7308 200.899, 42.7308 197.101, 47.8076 194.757 C 52.8844 192.414, 61.1156 192.414, 66.1924 194.757" fill="#d9dce0" fill-opacity="0.501961" />
<path d="M 149 180 L 138 104 L 169 137 Z" fill="#9e654b" fill-opacity="0.501961" />
<path d="M 84.7106 209.434 L 121.719 241.123 L 135.996 229.911 L 149.782 216.195 Z" fill="#a87b60" fill-opacity="0.501961" />
<path d="M 128.653 13.2162 L 171.787 36.7879 L 192.93 57.7933 L 154.39 35.2062 Z" fill="#2c2621" fill-opacity="0.501961" />
<path d="M 51 148 L 70 148 L 70 184 L 51 184 Z" fill="#e9e9eb" fill-opacity="0.501961" />
<path d="M 62 68 L 70 68 L 70 96 L 62 96 Z" fill="#2c2622" fill-opacity="0.501961" />
<path d="M 133.049 229.769 L 116.727 251.285 L 104.957 237.191 L 183.768 266.317 Z" fill="#2c2c41" fill-opacity="0.501961" />
<path d="M 149 110 L 164 110 L 164 115 L 149 115 Z" fill="#0f0707" fill-opacity="0.501961" />
<path d="M 125.007 64.7896 L 148.621 53.0659 L 151.525 69.9996 L 116.988 129.211 Z" fill="#b48369" fill-opacity="0.501961" />
<path d="M 58.9223 96.0917 L 67.889 9.93167 L -12.3811 97.8963 L 67.6745 104.58 Z" fill="#d2d3d1" fill-opacity="0.501961" />
<path d="M 185.673 150.648 C 189.969 137.679, 192.461 138.196, 191.24 151.803 C 190.019 165.41, 185.547 186.954, 181.251 199.923 C 176.955 212.892, 174.463 212.375, 175.684 198.768 C 176.905 185.161, 181.377 163.617, 185.673 150.648" fill="#888580" fill-opacity="0.501961" />
<path d="M 164.897 205.667 L 164.865 271 L 249.278 236.555 L 184.259 211.539 Z" fill="#111112" fill-opacity="0.501961" />
<path d="M 201 217 L 255 216 L 270 235 Z" fill="#827e7a" fill-opacity="0.501961" />
<path d="M 124 243 L 134 248 L 104 251 Z" fill="#0e000b" fill-opacity="0.501961" />
<path d="M 68 271 L -16 233 L 60 208 Z" fill="#1f2023" fill-opacity="0.501961" />
<path d="M 264.314 235.393 C 270.562 241.251, 270.562 250.749, 264.314 256.607 C 258.065 262.464, 247.935 262.464, 241.686 256.607 C 235.438 250.749, 235.438 241.251, 241.686 235.393 C 247.935 229.536, 258.065 229.536, 264.314 235.393" fill="#090a08" fill-opacity="0.501961" />
<path d="M 163 175 L 163 197 L 131 210 Z" fill="#482b1c" fill-opacity="0.501961" />
<path d="M 170.916 37.3787 L 212.57 71.2218 L 232.514 39.0498 L 181.104 10.0106 Z" fill="#c0c0bd" fill-opacity="0.501961" />
<path d="M 82.8089 52.5077 L 96.9431 88.7671 L 73.365 64.8902 L 77.0536 58.2838 Z" fill="#986d4c" fill-opacity="0.501961" />
</g>
</svg>
