<svg xmlns="http://www.w3.org/2000/svg" viewBox="0 0 24 24"><title>Redis icon</title><path d="M24 14.34c-.02.23-.32.5-.94.8-1.28.68-7.92 3.4-9.33 4.14-1.4.74-2.2.73-3.3.2-1.13-.54-8.2-3.4-9.46-4-.63-.3-.96-.56-.97-.8v2.43c0 .25.33.5.97.8 1.27.62 8.33 3.47 9.45 4 1.1.54 1.9.55 3.3-.2 1.42-.73 8.06-3.46 9.34-4.12.65-.34.94-.6.94-.85 0-.22 0-2.4 0-2.4zM24 10.4c-.02.2-.32.47-.94.8-1.28.66-7.92 3.4-9.33 4.13-1.4.73-2.2.73-3.3.2-1.13-.54-8.2-3.4-9.46-4-.63-.3-.96-.56-.97-.8v2.42c0 .25.33.5.97.8 1.27.6 8.33 3.47 9.45 4 1.1.53 1.9.54 3.3-.2 1.42-.73 8.06-3.46 9.34-4.13.65-.34.94-.6.94-.84 0-.23 0-2.4 0-2.4zM24 6.28c0-.24-.3-.45-.96-.7-1.24-.45-7.84-3.07-9.1-3.54-1.26-.46-1.78-.44-3.26.1-1.5.53-8.5 3.28-9.76 3.77-.62.26-.93.48-.92.72v2.43c0 .24.34.5.97.8 1.27.6 8.33 3.46 9.45 4 1.12.53 1.9.54 3.3-.2 1.43-.74 8.06-3.46 9.34-4.13.65-.34.94-.6.94-.84 0-.23 0-2.4 0-2.4zM8.6 8.58l5.56-.85-1.68 2.46-3.9-1.62zm12.3-2.22l-3.3 1.3-.35.14-3.3-1.3 3.65-1.44 3.3 1.3zm-9.66-2.38l-.54-1 1.68.66 1.58-.52-.43 1.03 1.6.6-2.06.22-.47 1.12-.75-1.26-2.4-.22 1.8-.64zM7.1 5.38c1.64 0 2.97.5 2.97 1.15 0 .64-1.33 1.15-2.97 1.15s-2.98-.52-2.98-1.15c0-.64 1.33-1.15 2.98-1.15z"/></svg>