<svg xmlns="http://www.w3.org/2000/svg" width="2500" height="2383" viewBox="0 0 256 244" preserveAspectRatio="xMidYMid"><path fill="#fff" d="M177.38 169.73c9.45-.97 16.62-9.12 16.3-18.9-.34-9.77-8.48-17.6-18.25-17.6h-.65c-10.1.34-17.92 8.8-17.6 18.9.33 4.9 2.28 9.13 5.2 12.06-11.06 21.82-28 37.8-53.4 51.14-17.28 9.12-35.2 12.38-53.1 10.1-14.67-1.95-26.07-8.47-33.24-19.22-10.43-15.96-11.4-33.23-2.6-50.5 6.18-12.38 15.96-21.5 22.15-26.06-1.32-4.23-3.27-11.4-4.25-16.6C-9.3 147.25-4.4 193.5 9.93 215.33c10.75 16.3 32.58 26.4 56.7 26.4 6.5 0 13.02-.66 19.53-2.3 41.7-8.13 73.3-32.9 91.22-69.7zm57.34-40.4c-24.76-29-61.25-44.95-102.95-44.95h-5.2c-2.94-5.87-9.13-9.78-15.97-9.78h-.65c-10.1.33-17.92 8.8-17.6 18.9.33 9.77 8.48 17.6 18.25 17.6h.65c7.17-.33 13.36-4.9 15.96-11.08h5.88c24.75 0 48.2 7.16 69.4 21.17 16.27 10.74 28 24.75 34.52 41.7 5.54 13.67 5.2 27.03-.65 38.43-9.13 17.27-24.44 26.72-44.63 26.72-13.04 0-25.4-3.9-31.93-6.84-3.6 3.26-10.1 8.48-14.67 11.73 14 6.52 28.34 10.1 42.02 10.1 31.28 0 54.4-17.26 63.2-34.53 9.45-18.9 8.8-51.47-15.63-79.16zm-165.5 45.94c.33 9.77 8.47 17.6 18.25 17.6h.65c10.1-.33 17.92-8.8 17.6-18.9-.33-9.78-8.48-17.6-18.25-17.6h-.65c-.66 0-1.63 0-2.28.33-13.36-22.15-18.9-46.26-16.94-72.32 1.3-19.55 7.8-36.5 19.22-50.5 9.44-12.05 27.7-17.92 40.07-18.24 34.52-.66 49.18 42.35 50.15 59.6 4.24 1 11.4 3.27 16.3 4.9C189.42 27.37 156.84 0 125.57 0c-29.32 0-56.35 21.18-67.1 52.45-15 41.7-5.22 81.77 13.03 113.37-1.62 2.28-2.6 5.87-2.27 9.45z"/></svg>